<svg width="64" height="24" viewBox="0 0 64 24" fill="none" xmlns="http://www.w3.org/2000/svg">
<path d="M14 20.7273H20V22.9091H14V20.7273Z" fill="#EA0000"/>
<path d="M15 22.9091H16V24H15V22.9091Z" fill="#EA0000"/>
<path d="M7 20.7273H13V22.9091H7V20.7273Z" fill="#EA0000"/>
<path d="M8 22.9091H9V24H8V22.9091Z" fill="#EA0000"/>
<path d="M0 20.7273H6V22.9091H0V20.7273Z" fill="#EA0000"/>
<path d="M1 22.9091H2V24H1V22.9091Z" fill="#EA0000"/>
<path d="M49 20.7273H55V22.9091H49V20.7273Z" fill="#EA0000"/>
<path d="M49 1.09091H55V3.27273H49V1.09091Z" fill="#EA0000"/>
<path d="M50 22.9091H51V24H50V22.9091Z" fill="#EA0000"/>
<path d="M53 0H54V1.09091H53V0Z" fill="#EA0000"/>
<path d="M42 20.7273H48V22.9091H42V20.7273Z" fill="#EA0000"/>
<path d="M43 22.9091H44V24H43V22.9091Z" fill="#EA0000"/>
<path d="M35 20.7273H41V22.9091H35V20.7273Z" fill="#EA0000"/>
<path d="M36 22.9091H37V24H36V22.9091Z" fill="#EA0000"/>
<path d="M28 20.7273H34V22.9091H28V20.7273Z" fill="#EA0000"/>
<path d="M29 22.9091H30V24H29V22.9091Z" fill="#EA0000"/>
<path d="M21 20.7273H27V22.9091H21V20.7273Z" fill="#EA0000"/>
<path d="M22 22.9091H23V24H22V22.9091Z" fill="#EA0000"/>
<path d="M56 1.09091H58V2.18182H59V3.27273H60V4.36364H61V5.45455H62V7.63636H60V6.54545H59V5.45455H58V4.36364H57V3.27273H56V1.09091Z" fill="#EA0000"/>
<path d="M61 4.36364H62V3.27273H61V4.36364Z" fill="#EA0000"/>
<path d="M60 16.3636H62V18.5455H61V19.6364H60V20.7273H59V21.8182H58V22.9091H56V20.7273H57V19.6364H58V18.5455H59V17.4545H60V16.3636Z" fill="#EA0000"/>
<path d="M59 21.8182V22.9091H60V21.8182H59Z" fill="#EA0000"/>
<path d="M0.164625 8.23855V9.87055H2.22863V15.2727H4.04463V9.87055H6.10863V8.23855H0.164625Z" fill="black"/>
<path d="M11.1851 13.0298V11.7731C11.1851 10.4989 10.6571 9.92291 9.48913 9.92291H6.37712V15.2727H8.04113V11.2756H9.52112V13.0298H11.1851Z" fill="black"/>
<path d="M14.7481 14.0596H13.0521V13.1695H14.7481V14.0596ZM16.4121 15.2727V11.7731C16.4121 10.4989 15.8841 9.92291 14.7161 9.92291H11.8841V11.2756H14.7481V11.9564H12.9401C11.9801 11.9564 11.4601 12.4713 11.4601 13.5447V13.6844C11.4601 14.7491 12.0201 15.2727 12.9401 15.2727H16.4121Z" fill="black"/>
<path d="M21.3639 9.92291H19.3639C17.7799 9.92291 17.1719 10.4116 17.1719 12.1135V13.0385C17.1719 14.7404 17.7799 15.2727 19.3639 15.2727H21.3639V13.9287H18.8359V11.2756H21.3639V9.92291Z" fill="black"/>
<path d="M27.494 15.2727L25.374 12.4713L27.358 9.92291H25.438L23.838 12.0611V8.23855H22.174V15.2727H23.838V13.0735L25.566 15.2727H27.494Z" fill="black"/>
<path d="M31.132 8.23855H29.66C28.74 8.23855 28.236 8.75345 28.236 9.89673C28.236 9.89673 28.236 10.4465 28.236 10.4553H27.468V11.7993H28.236V15.2727H29.9V11.7993H31.132V10.4465H29.9V9.59127H31.132V8.23855Z" fill="black"/>
<path d="M33.1896 15.2727V8.23855H31.5256V15.2727H33.1896Z" fill="black"/>
<path d="M37.2812 11.1884V12.0349H35.5292V11.1884H37.2812ZM38.8572 13.2131V12.1135C38.8572 10.4116 38.2492 9.87927 36.6652 9.87927H36.1452C34.5612 9.87927 33.9532 10.3593 33.9532 12.0698V13.0385C33.9532 14.7404 34.5612 15.2727 36.1452 15.2727H38.7852V13.9287H35.5292V13.2131H38.8572Z" fill="black"/>
<path d="M42.8593 11.1884V12.0349H41.1073V11.1884H42.8593ZM44.4353 13.2131V12.1135C44.4353 10.4116 43.8273 9.87927 42.2433 9.87927H41.7233C40.1393 9.87927 39.5313 10.3593 39.5313 12.0698V13.0385C39.5313 14.7404 40.1393 15.2727 41.7233 15.2727H44.3633V13.9287H41.1073V13.2131H44.4353Z" fill="black"/>
<path d="M47.6134 15.2727H48.5654V13.9287H47.1734V11.2756H48.5654V9.92291H47.1734V8.42182H45.5094V9.92291H44.7654V11.2756H45.5094V13.1782C45.5094 14.8015 46.0134 15.2727 47.6134 15.2727Z" fill="black"/>
<path d="M52 9.81818H56V14.1818H52V9.81818Z" fill="#EA0000"/>
<path fill-rule="evenodd" clip-rule="evenodd" d="M58 7.63636H50V16.3636H58V7.63636ZM51 8.72727H57V15.2727H51V8.72727Z" fill="#EA0000"/>
<path d="M61 15.2727V8.72727H63V13.0909H64V14.1818H63V15.2727H61Z" fill="#EA0000"/>
</svg>
