<svg width="25" height="24" viewBox="0 0 25 24" fill="none" xmlns="http://www.w3.org/2000/svg">
<rect x="0.5" width="24" height="24" rx="6" fill="black"/>
<path d="M10.3041 18.33C15.6261 18.33 18.5361 13.92 18.5361 10.098C18.5361 9.97201 18.5361 9.84601 18.5301 9.72601C19.0941 9.31801 19.5861 8.80801 19.9761 8.22601C19.4601 8.45401 18.9021 8.61001 18.3141 8.68201C18.9141 8.32201 19.3701 7.75801 19.5861 7.08001C19.0281 7.41001 18.4101 7.65001 17.7501 7.78201C17.2221 7.21801 16.4721 6.87001 15.6381 6.87001C14.0421 6.87001 12.7461 8.16601 12.7461 9.76201C12.7461 9.99001 12.7701 10.212 12.8241 10.422C10.4181 10.302 8.28808 9.15001 6.86008 7.39801C6.61408 7.82401 6.47008 8.32201 6.47008 8.85001C6.47008 9.85201 6.98008 10.74 7.76008 11.256C7.28608 11.244 6.84208 11.112 6.45208 10.896C6.45208 10.908 6.45208 10.92 6.45208 10.932C6.45208 12.336 7.44808 13.5 8.77408 13.77C8.53408 13.836 8.27608 13.872 8.01208 13.872C7.82608 13.872 7.64608 13.854 7.46608 13.818C7.83208 14.97 8.90008 15.804 10.1661 15.828C9.17608 16.602 7.92808 17.064 6.57208 17.064C6.33808 17.064 6.11008 17.052 5.88208 17.022C7.14808 17.85 8.67208 18.33 10.3041 18.33Z" fill="white"/>
</svg>
