<svg width="25" height="24" viewBox="0 0 25 24" fill="none" xmlns="http://www.w3.org/2000/svg">
<g clip-path="url(#clip0_36_754)">
<path d="M24.0057 6.22929C23.7289 5.20129 22.9184 4.39075 21.8904 4.11398C20.0123 3.59998 12.4999 3.59998 12.4999 3.59998C12.4999 3.59998 4.98762 3.59998 3.10954 4.09421C2.10131 4.37098 1.271 5.20129 0.994232 6.22929C0.5 8.10737 0.5 12.0019 0.5 12.0019C0.5 12.0019 0.5 15.9162 0.994232 17.7745C1.271 18.8025 2.08154 19.6131 3.10954 19.8899C5.00739 20.4039 12.4999 20.4039 12.4999 20.4039C12.4999 20.4039 20.0123 20.4039 21.8904 19.9096C22.9184 19.6329 23.7289 18.8223 24.0057 17.7943C24.4999 15.9162 24.4999 12.0217 24.4999 12.0217C24.4999 12.0217 24.5197 8.10737 24.0057 6.22929Z" fill="black"/>
<path d="M10.1079 15.5999L16.355 12.0019L10.1079 8.40387V15.5999Z" fill="white"/>
</g>
<defs>
<clipPath id="clip0_36_754">
<rect x="0.5" width="24" height="24" rx="6" fill="white"/>
</clipPath>
</defs>
</svg>
